<?xml version="1.0" encoding="UTF-8"?><svg xmlns="http://www.w3.org/2000/svg" xmlns:xlink="http://www.w3.org/1999/xlink"
    fill-opacity="1" color-rendering="auto" color-interpolation="auto" text-rendering="auto" stroke="black"
    stroke-linecap="square" width="933" stroke-miterlimit="10" shape-rendering="auto" stroke-opacity="1" fill="black"
    stroke-dasharray="none" font-weight="normal" stroke-width="1" height="1116" font-family="'Dialog'"
    font-style="normal" stroke-linejoin="miter" font-size="12px" stroke-dashoffset="0" image-rendering="auto">
    <!--Generated by ySVG 2.5-->
    <defs id="genericDefs" />
    <g>
        <g fill="white" text-rendering="geometricPrecision" shape-rendering="geometricPrecision"
            transform="translate(-94,297)" stroke="white">
            <rect x="94" width="933" height="1616" y="0" clip-path="url(#clipPath2)" stroke="none" />
        </g>
        <g text-rendering="geometricPrecision" stroke-miterlimit="1.45" shape-rendering="geometricPrecision"
            transform="matrix(1,0,0,1,-94,297)" stroke-linecap="butt">
            <rect x="110" y="-266" clip-path="url(#clipPath2)" fill="none" width="902.2086" rx="4" ry="4"
                height="57.7314" />
            <text x="115.3326" xml:space="preserve" y="-200" clip-path="url(#clipPath2)" font-family="sans-serif"
                stroke="none">Reinforcement Learning</text>
            <ellipse rx="270.17" fill="none" ry="174.8478" clip-path="url(#clipPath2)" cx="415.5061" cy="401.3388" />
            <text x="381.8147" xml:space="preserve" y="255.5554" clip-path="url(#clipPath2)" font-family="sans-serif"
                stroke="none">Value-based</text>
            <ellipse rx="270.17" fill="none" ry="277.7959" clip-path="url(#clipPath2)" cx="713.1458" cy="500.1834" />
            <text x="678.7952" xml:space="preserve" y="251.452" clip-path="url(#clipPath2)" font-family="sans-serif"
                stroke="none">Policy-based</text>
        </g>
        <g fill="rgb(255,204,0)" text-rendering="geometricPrecision" shape-rendering="geometricPrecision"
            transform="matrix(1,0,0,1,-94,297)" stroke="rgb(255,204,0)">
            <rect x="211.545" width="200" height="186.192" y="296.2575" clip-path="url(#clipPath2)" stroke="none" />
        </g>
        <g text-rendering="geometricPrecision" stroke-miterlimit="1.45" shape-rendering="geometricPrecision"
            transform="matrix(1,0,0,1,-94,297)" stroke-linecap="butt">
            <rect fill="none" x="211.545" width="200" height="186.192" y="296.2575" clip-path="url(#clipPath2)" />
            <text x="283.5313" xml:space="preserve" y="314.322" clip-path="url(#clipPath2)" font-family="sans-serif"
                stroke="none">Q-learning</text>
        </g>
        <g fill="rgb(153,204,255)" text-rendering="geometricPrecision" shape-rendering="geometricPrecision"
            transform="matrix(1,0,0,1,-94,297)" stroke="rgb(153,204,255)">
            <rect x="229.4804" width="161.0647" height="30" y="364.5268" clip-path="url(#clipPath2)" stroke="none" />
        </g>
        <g text-rendering="geometricPrecision" stroke-miterlimit="1.45" shape-rendering="geometricPrecision"
            transform="matrix(1,0,0,1,-94,297)" stroke-linecap="butt">
            <rect fill="none" x="229.4804" width="161.0647" height="30" y="364.5268" clip-path="url(#clipPath2)" />
            <text x="296.6797" xml:space="preserve" y="384.2406" clip-path="url(#clipPath2)" font-family="sans-serif"
                stroke="none">DQN</text>
        </g>
        <g fill="rgb(255,204,0)" text-rendering="geometricPrecision" shape-rendering="geometricPrecision"
            transform="matrix(1,0,0,1,-94,297)" stroke="rgb(255,204,0)">
            <rect x="692.176" width="200" height="200" y="309.0962" clip-path="url(#clipPath2)" stroke="none" />
        </g>
        <g text-rendering="geometricPrecision" stroke-miterlimit="1.45" shape-rendering="geometricPrecision"
            transform="matrix(1,0,0,1,-94,297)" stroke-linecap="butt">
            <rect fill="none" x="692.176" width="200" height="200" y="309.0962" clip-path="url(#clipPath2)" />
            <text x="752.8215" xml:space="preserve" y="327.1606" clip-path="url(#clipPath2)" font-family="sans-serif"
                stroke="none">Policy gradient</text>
        </g>
        <g fill="rgb(153,204,255)" text-rendering="geometricPrecision" shape-rendering="geometricPrecision"
            transform="matrix(1,0,0,1,-94,297)" stroke="rgb(153,204,255)">
            <rect x="715.676" width="153" height="30" y="340.0962" clip-path="url(#clipPath2)" stroke="none" />
        </g>
        <g text-rendering="geometricPrecision" stroke-miterlimit="1.45" shape-rendering="geometricPrecision"
            transform="matrix(1,0,0,1,-94,297)" stroke-linecap="butt">
            <rect fill="none" x="715.676" width="153" height="30" y="340.0962" clip-path="url(#clipPath2)" />
            <text x="756.8411" xml:space="preserve" y="359.8101" clip-path="url(#clipPath2)" font-family="sans-serif"
                stroke="none">REINFORCE</text>
        </g>
        <g fill="rgb(255,204,0)" text-rendering="geometricPrecision" shape-rendering="geometricPrecision"
            transform="matrix(1,0,0,1,-94,297)" stroke="rgb(255,204,0)">
            <rect x="510.0533" width="116.4606" height="186.0431" y="323.0531" clip-path="url(#clipPath2)"
                stroke="none" />
        </g>
        <g text-rendering="geometricPrecision" stroke-miterlimit="1.45" shape-rendering="geometricPrecision"
            transform="matrix(1,0,0,1,-94,297)" stroke-linecap="butt">
            <rect fill="none" x="510.0533" width="116.4606" height="186.0431" y="323.0531"
                clip-path="url(#clipPath2)" />
            <text x="538.6176" xml:space="preserve" y="341.1176" clip-path="url(#clipPath2)" font-family="sans-serif"
                stroke="none">Actor-Critic</text>
        </g>
        <g fill="rgb(153,204,255)" text-rendering="geometricPrecision" shape-rendering="geometricPrecision"
            transform="matrix(1,0,0,1,-94,297)" stroke="rgb(153,204,255)">
            <rect x="715.676" width="153" height="30" y="565.4546" clip-path="url(#clipPath2)" stroke="none" />
        </g>
        <g text-rendering="geometricPrecision" stroke-miterlimit="1.45" shape-rendering="geometricPrecision"
            transform="matrix(1,0,0,1,-94,297)" stroke-linecap="butt">
            <rect fill="none" x="715.676" width="153" height="30" y="565.4546" clip-path="url(#clipPath2)" />
            <text x="779.5051" xml:space="preserve" y="585.1684" clip-path="url(#clipPath2)" font-family="sans-serif"
                stroke="none">GPS</text>
        </g>
        <g fill="rgb(153,204,255)" text-rendering="geometricPrecision" shape-rendering="geometricPrecision"
            transform="matrix(1,0,0,1,-94,297)" stroke="rgb(153,204,255)">
            <rect x="715.676" width="153" height="30" y="419.8143" clip-path="url(#clipPath2)" stroke="none" />
        </g>
        <g text-rendering="geometricPrecision" stroke-miterlimit="1.45" shape-rendering="geometricPrecision"
            transform="matrix(1,0,0,1,-94,297)" stroke-linecap="butt">
            <rect fill="none" x="715.676" width="153" height="30" y="419.8143" clip-path="url(#clipPath2)" />
            <text x="775.509" xml:space="preserve" y="439.5281" clip-path="url(#clipPath2)" font-family="sans-serif"
                stroke="none">TRPO</text>
        </g>
        <g fill="rgb(153,204,255)" text-rendering="geometricPrecision" shape-rendering="geometricPrecision"
            transform="matrix(1,0,0,1,-94,297)" stroke="rgb(153,204,255)">
            <rect x="520.4061" width="95.755" height="30" y="351.9498" clip-path="url(#clipPath2)" stroke="none" />
        </g>
        <g text-rendering="geometricPrecision" stroke-miterlimit="1.45" shape-rendering="geometricPrecision"
            transform="matrix(1,0,0,1,-94,297)" stroke-linecap="butt">
            <rect fill="none" x="520.4061" width="95.755" height="30" y="351.9498" clip-path="url(#clipPath2)" />
            <text x="556.6118" xml:space="preserve" y="371.6636" clip-path="url(#clipPath2)" font-family="sans-serif"
                stroke="none">A3C</text>
        </g>
        <g fill="rgb(153,204,255)" text-rendering="geometricPrecision" shape-rendering="geometricPrecision"
            transform="matrix(1,0,0,1,-94,297)" stroke="rgb(153,204,255)">
            <rect x="520.4061" width="95.755" height="30" y="391.0068" clip-path="url(#clipPath2)" stroke="none" />
        </g>
        <g text-rendering="geometricPrecision" stroke-miterlimit="1.45" shape-rendering="geometricPrecision"
            transform="matrix(1,0,0,1,-94,297)" stroke-linecap="butt">
            <rect fill="none" x="520.4061" width="95.755" height="30" y="391.0068" clip-path="url(#clipPath2)" />
            <text x="550.9487" xml:space="preserve" y="410.7207" clip-path="url(#clipPath2)" font-family="sans-serif"
                stroke="none">DDPG</text>
        </g>
        <g fill="rgb(153,204,255)" text-rendering="geometricPrecision" shape-rendering="geometricPrecision"
            transform="matrix(1,0,0,1,-94,297)" stroke="rgb(153,204,255)">
            <rect x="229.4804" width="161.0647" height="30" y="439.1425" clip-path="url(#clipPath2)" stroke="none" />
        </g>
        <g text-rendering="geometricPrecision" stroke-miterlimit="1.45" shape-rendering="geometricPrecision"
            transform="matrix(1,0,0,1,-94,297)" stroke-linecap="butt">
            <rect fill="none" x="229.4804" width="161.0647" height="30" y="439.1425" clip-path="url(#clipPath2)" />
            <text x="298.0127" xml:space="preserve" y="458.8564" clip-path="url(#clipPath2)" font-family="sans-serif"
                stroke="none">NAF</text>
        </g>
        <g fill="rgb(153,204,255)" text-rendering="geometricPrecision" shape-rendering="geometricPrecision"
            transform="matrix(1,0,0,1,-94,297)" stroke="rgb(153,204,255)">
            <rect x="715.676" width="153" height="30" y="461.3143" clip-path="url(#clipPath2)" stroke="none" />
        </g>
        <g text-rendering="geometricPrecision" stroke-miterlimit="1.45" shape-rendering="geometricPrecision"
            transform="matrix(1,0,0,1,-94,297)" stroke-linecap="butt">
            <rect fill="none" x="715.676" width="153" height="30" y="461.3143" clip-path="url(#clipPath2)" />
            <text x="779.5051" xml:space="preserve" y="481.0281" clip-path="url(#clipPath2)" font-family="sans-serif"
                stroke="none">PPO</text>
        </g>
        <g fill="rgb(153,204,255)" text-rendering="geometricPrecision" shape-rendering="geometricPrecision"
            transform="matrix(1,0,0,1,-94,297)" stroke="rgb(153,204,255)">
            <rect x="229.4804" width="161.0647" height="30" y="401.8346" clip-path="url(#clipPath2)" stroke="none" />
        </g>
        <g text-rendering="geometricPrecision" stroke-miterlimit="1.45" shape-rendering="geometricPrecision"
            transform="matrix(1,0,0,1,-94,297)" stroke-linecap="butt">
            <rect fill="none" x="229.4804" width="161.0647" height="30" y="401.8346" clip-path="url(#clipPath2)" />
            <text x="271.666" xml:space="preserve" y="421.5485" clip-path="url(#clipPath2)" font-family="sans-serif"
                stroke="none">Rainbow DQN</text>
        </g>
        <g fill="rgb(255,204,0)" text-rendering="geometricPrecision" shape-rendering="geometricPrecision"
            transform="matrix(1,0,0,1,-94,297)" stroke="rgb(255,204,0)">
            <rect x="692.176" width="200" height="157.7453" y="543.9559" clip-path="url(#clipPath2)" stroke="none" />
        </g>
        <g text-rendering="geometricPrecision" stroke-miterlimit="1.45" shape-rendering="geometricPrecision"
            transform="matrix(1,0,0,1,-94,297)" stroke-linecap="butt">
            <rect fill="none" x="692.176" width="200" height="157.7453" y="543.9559" clip-path="url(#clipPath2)" />
            <text x="753.1643" xml:space="preserve" y="562.0203" clip-path="url(#clipPath2)" font-family="sans-serif"
                stroke="none">Derivative-free</text>
        </g>
        <g fill="rgb(153,204,255)" text-rendering="geometricPrecision" shape-rendering="geometricPrecision"
            transform="matrix(1,0,0,1,-94,297)" stroke="rgb(153,204,255)">
            <rect x="715.676" width="153" height="30" y="576.1866" clip-path="url(#clipPath2)" stroke="none" />
        </g>
        <g text-rendering="geometricPrecision" stroke-miterlimit="1.45" shape-rendering="geometricPrecision"
            transform="matrix(1,0,0,1,-94,297)" stroke-linecap="butt">
            <rect fill="none" x="715.676" width="153" height="30" y="576.1866" clip-path="url(#clipPath2)" />
            <text x="778.843" xml:space="preserve" y="595.9005" clip-path="url(#clipPath2)" font-family="sans-serif"
                stroke="none">CEM</text>
        </g>
        <g fill="rgb(153,204,255)" text-rendering="geometricPrecision" shape-rendering="geometricPrecision"
            transform="matrix(1,0,0,1,-94,297)" stroke="rgb(153,204,255)">
            <rect x="715.676" width="153" height="30" y="617.6866" clip-path="url(#clipPath2)" stroke="none" />
        </g>
        <g text-rendering="geometricPrecision" stroke-miterlimit="1.45" shape-rendering="geometricPrecision"
            transform="matrix(1,0,0,1,-94,297)" stroke-linecap="butt">
            <rect fill="none" x="715.676" width="153" height="30" y="617.6866" clip-path="url(#clipPath2)" />
            <text x="768.8411" xml:space="preserve" y="637.4005" clip-path="url(#clipPath2)" font-family="sans-serif"
                stroke="none">CMA-ES</text>
        </g>
        <g fill="rgb(153,204,255)" text-rendering="geometricPrecision" shape-rendering="geometricPrecision"
            transform="matrix(1,0,0,1,-94,297)" stroke="rgb(153,204,255)">
            <rect x="715.676" width="153" height="30" y="659.1866" clip-path="url(#clipPath2)" stroke="none" />
        </g>
        <g text-rendering="geometricPrecision" stroke-miterlimit="1.45" shape-rendering="geometricPrecision"
            transform="matrix(1,0,0,1,-94,297)" stroke-linecap="butt">
            <rect fill="none" x="715.676" width="153" height="30" y="659.1866" clip-path="url(#clipPath2)" />
            <text x="762.5042" xml:space="preserve" y="678.9005" clip-path="url(#clipPath2)" font-family="sans-serif"
                stroke="none">GA / NEAT</text>
        </g>
        <g fill="rgb(153,204,255)" text-rendering="geometricPrecision" shape-rendering="geometricPrecision"
            transform="matrix(1,0,0,1,-94,297)" stroke="rgb(153,204,255)">
            <rect x="715.676" width="153" height="30" y="379.9552" clip-path="url(#clipPath2)" stroke="none" />
        </g>
        <g text-rendering="geometricPrecision" stroke-miterlimit="1.45" shape-rendering="geometricPrecision"
            transform="matrix(1,0,0,1,-94,297)" stroke-linecap="butt">
            <rect fill="none" x="715.676" width="153" height="30" y="379.9552" clip-path="url(#clipPath2)" />
            <text x="748.1545" xml:space="preserve" y="399.6691" clip-path="url(#clipPath2)" font-family="sans-serif"
                stroke="none">Natural Gradient</text>
        </g>
        <g fill="rgb(255,204,0)" text-rendering="geometricPrecision" shape-rendering="geometricPrecision"
            transform="matrix(1,0,0,1,-94,297)" stroke="rgb(255,204,0)">
            <rect x="145.3361" width="297.6398" height="187.9396" y="590.0397" clip-path="url(#clipPath2)"
                stroke="none" />
        </g>
        <g text-rendering="geometricPrecision" stroke-miterlimit="1.45" shape-rendering="geometricPrecision"
            transform="matrix(1,0,0,1,-94,297)" stroke-linecap="butt">
            <rect fill="none" x="145.3361" width="297.6398" height="187.9396" y="590.0397"
                clip-path="url(#clipPath2)" />
            <text x="259.4685" xml:space="preserve" y="608.1042" clip-path="url(#clipPath2)" font-family="sans-serif"
                stroke="none">Model-based</text>
        </g>
        <g fill="rgb(153,204,255)" text-rendering="geometricPrecision" shape-rendering="geometricPrecision"
            transform="matrix(1,0,0,1,-94,297)" stroke="rgb(153,204,255)">
            <rect x="167.6533" width="116.4606" height="30" y="621.1607" clip-path="url(#clipPath2)" stroke="none" />
        </g>
        <g text-rendering="geometricPrecision" stroke-miterlimit="1.45" shape-rendering="geometricPrecision"
            transform="matrix(1,0,0,1,-94,297)" stroke-linecap="butt">
            <rect fill="none" x="167.6533" width="116.4606" height="30" y="621.1607" clip-path="url(#clipPath2)" />
            <text x="211.8768" xml:space="preserve" y="640.8746" clip-path="url(#clipPath2)" font-family="sans-serif"
                stroke="none">Dyna</text>
        </g>
        <g fill="rgb(153,204,255)" text-rendering="geometricPrecision" shape-rendering="geometricPrecision"
            transform="matrix(1,0,0,1,-94,297)" stroke="rgb(153,204,255)">
            <rect x="167.6533" width="116.4606" height="30" y="733.0829" clip-path="url(#clipPath2)" stroke="none" />
        </g>
        <g text-rendering="geometricPrecision" stroke-miterlimit="1.45" shape-rendering="geometricPrecision"
            transform="matrix(1,0,0,1,-94,297)" stroke-linecap="butt">
            <rect fill="none" x="167.6533" width="116.4606" height="30" y="733.0829" clip-path="url(#clipPath2)" />
            <text x="213.2127" xml:space="preserve" y="752.7968" clip-path="url(#clipPath2)" font-family="sans-serif"
                stroke="none">GPS</text>
        </g>
        <g fill="rgb(153,204,255)" text-rendering="geometricPrecision" shape-rendering="geometricPrecision"
            transform="matrix(1,0,0,1,-94,297)" stroke="rgb(153,204,255)">
            <rect x="167.6533" width="116.4606" height="30" y="659.1866" clip-path="url(#clipPath2)" stroke="none" />
        </g>
        <g text-rendering="geometricPrecision" stroke-miterlimit="1.45" shape-rendering="geometricPrecision"
            transform="matrix(1,0,0,1,-94,297)" stroke-linecap="butt">
            <rect fill="none" x="167.6533" width="116.4606" height="30" y="659.1866" clip-path="url(#clipPath2)" />
            <text x="213.2127" xml:space="preserve" y="678.9005" clip-path="url(#clipPath2)" font-family="sans-serif"
                stroke="none">SVG</text>
        </g>
        <g fill="rgb(153,204,255)" text-rendering="geometricPrecision" shape-rendering="geometricPrecision"
            transform="matrix(1,0,0,1,-94,297)" stroke="rgb(153,204,255)">
            <rect x="167.6533" width="116.4606" height="30" y="696.1348" clip-path="url(#clipPath2)" stroke="none" />
        </g>
        <g text-rendering="geometricPrecision" stroke-miterlimit="1.45" shape-rendering="geometricPrecision"
            transform="matrix(1,0,0,1,-94,297)" stroke-linecap="butt">
            <rect fill="none" x="167.6533" width="116.4606" height="30" y="696.1348" clip-path="url(#clipPath2)" />
            <text x="198.2069" xml:space="preserve" y="715.8486" clip-path="url(#clipPath2)" font-family="sans-serif"
                stroke="none">DeepMPC</text>
        </g>
        <g fill="rgb(153,204,255)" text-rendering="geometricPrecision" shape-rendering="geometricPrecision"
            transform="matrix(1,0,0,1,-94,297)" stroke="rgb(153,204,255)">
            <rect x="229.4804" width="161.0647" height="30" y="327.2189" clip-path="url(#clipPath2)" stroke="none" />
        </g>
        <g text-rendering="geometricPrecision" stroke-miterlimit="1.45" shape-rendering="geometricPrecision"
            transform="matrix(1,0,0,1,-94,297)" stroke-linecap="butt">
            <rect fill="none" x="229.4804" width="161.0647" height="30" y="327.2189" clip-path="url(#clipPath2)" />
            <text x="297.3477" xml:space="preserve" y="346.9327" clip-path="url(#clipPath2)" font-family="sans-serif"
                stroke="none">NFQ</text>
        </g>
        <g fill="rgb(153,204,255)" text-rendering="geometricPrecision" shape-rendering="geometricPrecision"
            transform="matrix(1,0,0,1,-94,297)" stroke="rgb(153,204,255)">
            <rect x="520.4061" width="95.755" height="30" y="430.0639" clip-path="url(#clipPath2)" stroke="none" />
        </g>
        <g text-rendering="geometricPrecision" stroke-miterlimit="1.45" shape-rendering="geometricPrecision"
            transform="matrix(1,0,0,1,-94,297)" stroke-linecap="butt">
            <rect fill="none" x="520.4061" width="95.755" height="30" y="430.0639" clip-path="url(#clipPath2)" />
            <text x="555.9467" xml:space="preserve" y="449.7778" clip-path="url(#clipPath2)" font-family="sans-serif"
                stroke="none">SAC</text>
        </g>
        <g fill="rgb(153,204,255)" text-rendering="geometricPrecision" shape-rendering="geometricPrecision"
            transform="matrix(1,0,0,1,-94,297)" stroke="rgb(153,204,255)">
            <rect x="304.8556" width="116.4606" height="30" y="621.1607" clip-path="url(#clipPath2)" stroke="none" />
        </g>
        <g text-rendering="geometricPrecision" stroke-miterlimit="1.45" shape-rendering="geometricPrecision"
            transform="matrix(1,0,0,1,-94,297)" stroke-linecap="butt">
            <rect fill="none" x="304.8556" width="116.4606" height="30" y="621.1607" clip-path="url(#clipPath2)" />
            <text x="346.75" xml:space="preserve" y="640.8746" clip-path="url(#clipPath2)" font-family="sans-serif"
                stroke="none">UCRL</text>
        </g>
        <g fill="rgb(153,204,255)" text-rendering="geometricPrecision" shape-rendering="geometricPrecision"
            transform="matrix(1,0,0,1,-94,297)" stroke="rgb(153,204,255)">
            <rect x="304.8556" width="116.4606" height="30" y="733.0829" clip-path="url(#clipPath2)" stroke="none" />
        </g>
        <g text-rendering="geometricPrecision" stroke-miterlimit="1.45" shape-rendering="geometricPrecision"
            transform="matrix(1,0,0,1,-94,297)" stroke-linecap="butt">
            <rect fill="none" x="304.8556" width="116.4606" height="30" y="733.0829" clip-path="url(#clipPath2)" />
            <text x="345.0771" xml:space="preserve" y="752.7968" clip-path="url(#clipPath2)" font-family="sans-serif"
                stroke="none">PlaNet</text>
        </g>
        <g fill="rgb(153,204,255)" text-rendering="geometricPrecision" shape-rendering="geometricPrecision"
            transform="matrix(1,0,0,1,-94,297)" stroke="rgb(153,204,255)">
            <rect x="304.8556" width="116.4606" height="30" y="659.1866" clip-path="url(#clipPath2)" stroke="none" />
        </g>
        <g text-rendering="geometricPrecision" stroke-miterlimit="1.45" shape-rendering="geometricPrecision"
            transform="matrix(1,0,0,1,-94,297)" stroke-linecap="butt">
            <rect fill="none" x="304.8556" width="116.4606" height="30" y="659.1866" clip-path="url(#clipPath2)" />
            <text x="345.0801" xml:space="preserve" y="678.9005" clip-path="url(#clipPath2)" font-family="sans-serif"
                stroke="none">PILCO</text>
        </g>
        <g fill="rgb(153,204,255)" text-rendering="geometricPrecision" shape-rendering="geometricPrecision"
            transform="matrix(1,0,0,1,-94,297)" stroke="rgb(153,204,255)">
            <rect x="304.8556" width="116.4606" height="30" y="696.1348" clip-path="url(#clipPath2)" stroke="none" />
        </g>
        <g text-rendering="geometricPrecision" stroke-miterlimit="1.45" shape-rendering="geometricPrecision"
            transform="matrix(1,0,0,1,-94,297)" stroke-linecap="butt">
            <rect fill="none" x="304.8556" width="116.4606" height="30" y="696.1348" clip-path="url(#clipPath2)" />
            <text x="348.417" xml:space="preserve" y="715.8486" clip-path="url(#clipPath2)" font-family="sans-serif"
                stroke="none">MPPI</text>
        </g>
        <g fill="rgb(153,204,255)" text-rendering="geometricPrecision" shape-rendering="geometricPrecision"
            transform="matrix(1,0,0,1,-94,297)" stroke="rgb(153,204,255)">
            <rect x="520.4061" width="95.755" height="30" y="469.121" clip-path="url(#clipPath2)" stroke="none" />
        </g>
        <g text-rendering="geometricPrecision" stroke-miterlimit="1.45" shape-rendering="geometricPrecision"
            transform="matrix(1,0,0,1,-94,297)" stroke-linecap="butt">
            <rect fill="none" x="520.4061" width="95.755" height="30" y="469.121" clip-path="url(#clipPath2)" />
            <text x="546.2758" xml:space="preserve" y="488.8348" clip-path="url(#clipPath2)" font-family="sans-serif"
                stroke="none">IMPALA</text>
        </g>
    </g>
</svg>